<svg viewBox="0 0 700 13" fill="none" xmlns="http://www.w3.org/2000/svg">
<rect y="4" width="300" height="1" rx="0.5" fill="#0F0F0F"/>
<rect x="400" y="4" width="300" height="1" rx="0.5" fill="#0F0F0F"/>
<path d="M295.5 3.5C297.5 3.5 300 3.5 300 4.49988C300 5.49976 298 5.49992 295.5 5.49992C293.454 5.49992 180.337 5.36511 144 5L144 4C144 4 293.5 3.5 295.5 3.5Z" fill="#0F0F0F"/>
<path d="M404.5 3.5C402.5 3.5 400 3.5 400 4.49988C400 5.49976 402 5.49992 404.5 5.49992C406.545 5.49992 519.662 5.36511 556 5L556 4C556 4 406.5 3.5 404.5 3.5Z" fill="#0F0F0F"/>
<circle cx="350" cy="8" r="3.5" stroke="#0F0F0F"/>
<mask id="mask0_8_2825" style="mask-type:alpha" maskUnits="userSpaceOnUse" x="345" y="8" width="10" height="5">
<rect x="345" y="8" width="10" height="5" fill="#D9D9D9"/>
</mask>
<g mask="url(#mask0_8_2825)">
<path d="M353.5 8.5C353.5 10.7661 351.879 12.5 350 12.5C348.121 12.5 346.5 10.7661 346.5 8.5C346.5 6.23387 348.121 4.5 350 4.5C351.879 4.5 353.5 6.23387 353.5 8.5Z" stroke="#0F0F0F"/>
</g>
<circle cx="324" cy="6" r="1.5" fill="#0F0F0F" stroke="#0F0F0F"/>
<circle cx="377" cy="6" r="1.5" fill="#0F0F0F" stroke="#0F0F0F"/>
</svg>
