<svg version="1.1" xmlns="http://www.w3.org/2000/svg" xmlns:xlink="http://www.w3.org/1999/xlink" viewBox="-22 -22 242 242" xml:space="preserve">
<path fill="#38A83B" opacity="1.000000" stroke="none" 
	d="
M31.955168,30.918373 
	C34.866196,26.632580 37.643375,22.247528 40.726753,18.089539 
	C43.676632,14.111564 46.944824,10.369632 50.708012,5.743451 
	C54.824833,7.398880 59.714226,9.311508 64.560692,11.327357 
	C70.596725,13.837998 76.558044,16.531593 82.623108,18.968266 
	C90.328087,22.063782 98.225578,24.717628 105.758514,28.175287 
	C107.463242,28.957769 108.008400,32.266491 109.314987,34.865177 
	C109.952393,33.858086 110.804932,32.511070 111.822182,30.903826 
	C122.098602,34.705090 132.440994,38.503788 142.762939,42.357250 
	C151.269257,45.532898 159.755798,48.761921 168.235382,52.008331 
	C168.873291,52.252556 169.385254,52.825760 169.592407,53.791702 
	C165.038040,59.462379 160.774307,64.530258 156.686325,69.736137 
	C154.596756,72.397110 152.822083,75.305351 150.546844,78.031815 
	C131.548950,69.014679 112.043602,62.316257 92.109718,54.280453 
	C92.109718,68.546791 91.983978,81.350929 92.265137,94.146118 
	C92.301224,95.788742 94.103622,98.166656 95.681931,98.869263 
	C103.103615,102.173111 110.727440,105.024330 118.289032,108.012024 
	C127.365891,111.598412 136.405014,115.291954 145.582916,118.599358 
	C147.090454,119.142632 149.832489,122.169609 151.381226,117.756607 
	C152.426483,117.051262 153.218719,116.520126 154.003540,116.355705 
	C152.965790,118.848854 151.935425,120.975273 150.533661,123.027344 
	C141.208160,119.591660 132.204285,116.355400 123.319618,112.819580 
	C118.408806,110.865250 113.761726,108.255501 108.879425,106.220306 
	C103.557152,104.001709 98.100288,102.106033 92.101624,99.843056 
	C92.101624,112.090454 92.205879,123.521049 92.006668,134.946365 
	C91.970299,137.032455 90.697006,139.097015 90.012016,141.522949 
	C89.676193,142.919052 89.323044,143.963745 88.583664,145.004669 
	C83.056587,142.716797 77.962257,140.320145 72.765198,138.172058 
	C62.060745,133.747589 51.352146,129.324265 40.545441,125.159454 
	C34.167740,122.701553 27.594673,120.752045 21.117489,118.550308 
	C16.688940,117.044945 12.274226,115.498886 7.853327,113.971024 
	C3.460831,108.412956 9.536503,105.632881 11.569560,102.399078 
	C14.882899,97.128838 19.672894,92.786964 23.601158,88.324409 
	C25.619858,89.284851 27.397278,90.130501 29.576891,91.434814 
	C29.979084,100.688416 29.979084,109.483368 29.979084,118.202148 
	C49.646076,126.027969 68.887375,133.684402 88.896973,141.646545 
	C88.896973,128.763458 88.897255,117.299446 88.896873,105.835434 
	C88.896614,98.048546 88.893959,98.056374 81.472000,95.933815 
	C80.684517,95.708611 79.937263,95.336639 79.180176,95.012154 
	C70.566635,91.320259 62.008366,87.492302 53.325748,83.970894 
	C46.255753,81.103508 39.037426,78.601845 31.884874,75.938019 
	C32.044117,75.345596 32.203365,74.753166 33.008656,74.106277 
	C40.259262,76.683769 46.879272,79.277786 53.463814,81.958916 
	C59.447414,84.395355 65.350502,87.033852 71.366661,89.384750 
	C77.015800,91.592239 82.766449,93.539940 88.621597,95.655846 
	C88.621597,80.927826 88.621597,66.685287 88.621597,52.546890 
	C81.139198,49.849766 73.885017,47.376114 66.737076,44.626270 
	C55.106560,40.151962 43.545525,35.497059 31.955168,30.918373 
z"/>
<path fill="#55FF55" opacity="1.000000" stroke="none" 
	d="
M8.023444,114.291595 
	C12.274226,115.498886 16.688940,117.044945 21.117489,118.550308 
	C27.594673,120.752045 34.167740,122.701553 40.545441,125.159454 
	C51.352146,129.324265 62.060745,133.747589 72.765198,138.172058 
	C77.962257,140.320145 83.056587,142.716797 88.594978,145.387253 
	C89.305115,147.140152 89.617691,148.506714 90.312515,149.944824 
	C92.584137,150.591522 94.526260,151.034454 96.354149,151.763733 
	C106.591583,155.848038 116.804024,159.995071 127.019623,164.133942 
	C132.169815,166.220551 137.263519,168.455185 142.462677,170.410400 
	C151.297134,173.732758 160.194778,176.887070 169.065872,180.112000 
	C168.320663,180.739563 167.625397,181.831497 166.821976,181.917938 
	C162.241730,182.410736 157.640808,182.810623 153.037476,182.969925 
	C140.950653,183.388199 128.841629,183.374802 116.774673,184.092194 
	C107.121407,184.666107 97.516930,186.060623 87.289970,187.155212 
	C87.127258,184.864685 86.981697,182.815491 86.877235,181.345032 
	C82.449799,177.917740 78.137390,174.960266 74.312157,171.469025 
	C72.174133,169.517670 71.371056,169.176498 69.797729,171.911591 
	C69.172264,172.998886 66.628288,174.028320 65.508705,173.609894 
	C59.768948,171.464722 54.269016,168.685959 48.562618,166.440323 
	C45.275669,165.146820 41.756279,164.444000 38.000000,163.378418 
	C38.000000,158.989502 38.036003,154.514511 37.990875,150.040329 
	C37.934566,144.457489 38.703049,139.410568 32.367699,135.222824 
	C23.599497,129.426956 16.186745,121.580521 8.023444,114.291595 
z"/>
<path fill="#55FF55" opacity="1.000000" stroke="none" 
	d="
M31.466049,75.999016 
	C39.037426,78.601845 46.255753,81.103508 53.325748,83.970894 
	C62.008366,87.492302 70.566635,91.320259 79.180176,95.012154 
	C79.937263,95.336639 80.684517,95.708611 81.472000,95.933815 
	C88.893959,98.056374 88.896614,98.048546 88.896873,105.835434 
	C88.897255,117.299446 88.896973,128.763458 88.896973,141.646545 
	C68.887375,133.684402 49.646076,126.027969 29.979084,118.202148 
	C29.979084,109.483368 29.979084,100.688416 29.949480,91.423981 
	C30.295658,85.989662 30.671440,81.024834 31.466049,75.999016 
z"/>
<path fill="#55FF55" opacity="1.000000" stroke="none" 
	d="
M31.528667,30.985233 
	C43.545525,35.497059 55.106560,40.151962 66.737076,44.626270 
	C73.885017,47.376114 81.139198,49.849766 88.621597,52.546890 
	C88.621597,66.685287 88.621597,80.927826 88.621597,95.655846 
	C82.766449,93.539940 77.015800,91.592239 71.366661,89.384750 
	C65.350502,87.033852 59.447414,84.395355 53.463814,81.958916 
	C46.879272,79.277786 40.259262,76.683769 33.290504,73.972092 
	C30.014687,72.128586 29.897026,69.408600 29.942219,66.347130 
	C30.094193,56.051861 29.956436,45.752567 30.049068,35.455891 
	C30.062300,33.984917 30.734791,32.519878 31.528667,30.985233 
z"/>
<path fill="#38A83B" opacity="1.000000" stroke="none" 
	d="
M169.431610,180.056671 
	C160.194778,176.887070 151.297134,173.732758 142.462677,170.410400 
	C137.263519,168.455185 132.169815,166.220551 127.019623,164.133942 
	C116.804024,159.995071 106.591583,155.848038 96.354149,151.763733 
	C94.526260,151.034454 92.584137,150.591522 90.389160,149.616272 
	C91.364670,147.187057 92.645775,145.157959 94.286194,143.127411 
	C103.810768,147.088470 112.957451,151.094681 122.147858,154.997986 
	C128.233795,157.582779 134.287064,160.303223 140.541550,162.408661 
	C143.868561,163.528641 147.592590,163.469269 151.392395,163.723480 
	C156.124969,158.319473 160.602539,153.134216 165.080093,147.948959 
	C167.480789,149.289642 169.775848,150.891617 172.305161,151.914215 
	C176.940674,153.788300 181.745178,155.243607 186.388489,157.100433 
	C186.919800,157.312881 187.395554,159.318481 187.007904,159.907120 
	C184.436584,163.811874 181.851593,167.752777 178.819397,171.295364 
	C176.114166,174.455948 172.827454,177.118835 169.431610,180.056671 
z"/>
<path fill="#2C6F2C" opacity="1.000000" stroke="none" 
	d="
M154.010941,115.988983 
	C153.218719,116.520126 152.426483,117.051262 151.331512,117.295891 
	C150.987549,104.040192 150.946320,91.071014 150.905090,78.101830 
	C152.822083,75.305351 154.596756,72.397110 156.686325,69.736137 
	C160.774307,64.530258 165.038040,59.462379 169.532944,54.189266 
	C169.890900,66.838493 169.972565,79.635872 169.954926,92.433105 
	C169.953217,93.669617 169.335938,94.905273 168.579865,96.626785 
	C167.433029,98.747185 166.710709,100.382133 165.993988,102.009140 
	C165.999588,102.001205 166.013458,101.987640 165.642670,101.979477 
	C163.843658,103.985329 162.415436,105.999344 160.993607,108.006729 
	C160.999985,108.000099 161.012985,107.987160 160.631378,107.998734 
	C159.162949,110.013214 158.076141,112.016121 156.994873,114.010109 
	C157.000412,114.001198 157.017151,113.988464 156.656952,113.978149 
	C155.526733,114.649651 154.756714,115.331474 153.992554,116.007431 
	C153.998413,116.001579 154.010941,115.988983 154.010941,115.988983 
z"/>
<path fill="#2C6F2C" opacity="1.000000" stroke="none" 
	d="
M165.049408,147.579102 
	C160.602539,153.134216 156.124969,158.319473 151.339447,163.261810 
	C150.989365,149.713165 150.947220,136.407425 150.905060,123.101692 
	C151.935425,120.975273 152.965790,118.848854 154.003540,116.355705 
	C154.010941,115.988983 153.998413,116.001579 154.317352,115.979752 
	C155.429901,115.301437 156.223526,114.644951 157.017151,113.988464 
	C157.017151,113.988464 157.000412,114.001198 157.266724,113.808426 
	C158.693024,111.739494 159.853012,109.863327 161.012985,107.987160 
	C161.012985,107.987160 160.999985,108.000099 161.336578,107.974144 
	C163.119949,105.961342 164.566696,103.974487 166.013458,101.987640 
	C166.013458,101.987640 165.999588,102.001205 166.302673,101.875626 
	C167.420898,100.806763 168.236008,99.863487 169.051132,98.920212 
	C169.367432,100.433098 169.944061,101.943672 169.957520,103.459244 
	C170.041656,112.928940 169.594101,122.423500 170.145920,131.861679 
	C170.500534,137.927032 168.822311,142.792206 165.049408,147.579102 
z"/>
<path fill="#38A83B" opacity="1.000000" stroke="none" 
	d="
M169.027435,98.594704 
	C168.236008,99.863487 167.420898,100.806763 166.297089,101.883560 
	C166.710709,100.382133 167.433029,98.747185 168.495132,97.046570 
	C168.891205,97.410324 168.947464,97.839760 169.027435,98.594704 
z"/>
<path fill="#55FF55" opacity="1.000000" stroke="none" 
	d="
M150.533661,123.027344 
	C150.947220,136.407425 150.989365,149.713165 151.084457,163.480560 
	C147.592590,163.469269 143.868561,163.528641 140.541550,162.408661 
	C134.287064,160.303223 128.233795,157.582779 122.147858,154.997986 
	C112.957451,151.094681 103.810768,147.088470 93.993958,142.985260 
	C92.226494,142.286865 91.110596,141.729187 89.994698,141.171509 
	C90.697006,139.097015 91.970299,137.032455 92.006668,134.946365 
	C92.205879,123.521049 92.101624,112.090454 92.101624,99.843056 
	C98.100288,102.106033 103.557152,104.001709 108.879425,106.220306 
	C113.761726,108.255501 118.408806,110.865250 123.319618,112.819580 
	C132.204285,116.355400 141.208160,119.591660 150.533661,123.027344 
z"/>
<path fill="#55FF55" opacity="1.000000" stroke="none" 
	d="
M150.546844,78.031815 
	C150.946320,91.071014 150.987549,104.040192 151.078476,117.470093 
	C149.832489,122.169609 147.090454,119.142632 145.582916,118.599358 
	C136.405014,115.291954 127.365891,111.598412 118.289032,108.012024 
	C110.727440,105.024330 103.103615,102.173111 95.681931,98.869263 
	C94.103622,98.166656 92.301224,95.788742 92.265137,94.146118 
	C91.983978,81.350929 92.109718,68.546791 92.109718,54.280453 
	C112.043602,62.316257 131.548950,69.014679 150.546844,78.031815 
z"/>
<path fill="#2C6F2C" opacity="1.000000" stroke="none" 
	d="
M90.012016,141.522949 
	C91.110596,141.729187 92.226494,142.286865 93.634644,142.986694 
	C92.645775,145.157959 91.364670,147.187057 90.006912,149.544708 
	C89.617691,148.506714 89.305115,147.140152 88.981216,145.391006 
	C89.323044,143.963745 89.676193,142.919052 90.012016,141.522949 
z"/>
<path fill="#38A83B" opacity="1.000000" stroke="none" 
	d="
M165.642670,101.979477 
	C164.566696,103.974487 163.119949,105.961342 161.330200,107.980774 
	C162.415436,105.999344 163.843658,103.985329 165.642670,101.979477 
z"/>
<path fill="#38A83B" opacity="1.000000" stroke="none" 
	d="
M160.631378,107.998734 
	C159.853012,109.863327 158.693024,111.739494 157.261185,113.817337 
	C158.076141,112.016121 159.162949,110.013214 160.631378,107.998734 
z"/>
<path fill="#38A83B" opacity="1.000000" stroke="none" 
	d="
M156.656952,113.978149 
	C156.223526,114.644951 155.429901,115.301437 154.311493,115.985611 
	C154.756714,115.331474 155.526733,114.649651 156.656952,113.978149 
z"/>
</svg>