<?xml version="1.0" encoding="utf-8"?>
<!-- Generator: Adobe Illustrator 16.0.4, SVG Export Plug-In . SVG Version: 6.00 Build 0)  -->
<!DOCTYPE svg PUBLIC "-//W3C//DTD SVG 1.1//EN" "http://www.w3.org/Graphics/SVG/1.1/DTD/svg11.dtd">
<svg version="1.1" id="Layer_1" xmlns="http://www.w3.org/2000/svg" xmlns:xlink="http://www.w3.org/1999/xlink" x="0px" y="0px"
	 width="919.552px" height="280.028px" viewBox="0 0 919.552 259.028" enable-background="new 0 0 919.552 259.028"
	 xml:space="preserve" style="background:white; padding-top:6.5px;">
<g>
	<g>
		<defs>
			<rect id="SVGID_1_" width="919.552" height="259.028"/>
		</defs>
		<clipPath id="SVGID_2_">
			<use xlink:href="#SVGID_1_"  overflow="visible"/>
		</clipPath>
		<g clip-path="url(#SVGID_2_)">
			<defs>
				<rect id="SVGID_3_" x="18.43" y="-0.912" width="883" height="244.001"/>
			</defs>
			<clipPath id="SVGID_4_">
				<use xlink:href="#SVGID_3_"  overflow="visible"/>
			</clipPath>
			<g clip-path="url(#SVGID_4_)">
				<defs>
					<rect id="SVGID_5_" x="18.43" y="-0.912" width="883" height="244.001"/>
				</defs>
				<clipPath id="SVGID_6_">
					<use xlink:href="#SVGID_5_"  overflow="visible"/>
				</clipPath>
				<g clip-path="url(#SVGID_6_)">
					<defs>
						<rect id="SVGID_7_" x="18.43" y="-0.912" width="883" height="244.001"/>
					</defs>
					<clipPath id="SVGID_8_">
						<use xlink:href="#SVGID_7_"  overflow="visible"/>
					</clipPath>
					<path clip-path="url(#SVGID_8_)" fill="#EFEFEF" d="M631.921,171.337c-24.168,16.895-58.52,28.951-96.627,28.951
						c-73.158,0-132.466-38.896-132.466-86.879c0-19.916,10.218-38.268,27.402-52.92l-1.393,0.986
						c-21.399,15.432-34.443,35.936-34.443,58.439c0,47.984,59.308,86.881,132.468,86.881c43.062,0,81.328-14.979,105.52-35.854
						L631.921,171.337z"/>
					<path clip-path="url(#SVGID_8_)" fill="none" stroke="#BFBFBF" stroke-width="1.2" stroke-dasharray="6,6" d="M511.925,205.755
						c39.846-0.977,71.242-96.807,25.195-96.45"/>
					
						<line clip-path="url(#SVGID_8_)" fill="none" stroke="#BFBFBF" stroke-width="2.988" x1="98.013" y1="216.116" x2="300.323" y2="131.226"/>
					<path clip-path="url(#SVGID_8_)" fill="#EFEFEF" d="M644.38,80.572c-15.762,0-22.006-16.008-51.904-31.035
						c-22.256-11.185-69.57-16.559-69.57-16.559s50.047-1.195,84.553,18.395c25.607,14.538,25.744,14.434,37.061,14.434
						c11.318,0,11.318,0.104,36.924-14.434c34.506-19.59,84.555-18.395,84.555-18.395s-47.314,5.374-69.572,16.559
						C666.527,64.564,660.146,80.572,644.38,80.572"/>
					<path clip-path="url(#SVGID_8_)" fill="#EFEFEF" d="M657.111,171.337c24.166,16.895,58.518,28.951,96.627,28.951
						c73.162,0,132.469-38.896,132.469-86.879c0-19.916-10.219-38.268-27.402-52.92l1.391,0.986
						c21.4,15.432,34.443,35.936,34.443,58.439c0,47.984-59.307,86.881-132.467,86.881c-43.062,0-81.328-14.979-105.518-35.854
						L657.111,171.337z"/>
					<path clip-path="url(#SVGID_8_)" fill="#EFEFEF" d="M721.603,99.925c0,0,15.223-7.341,36.439-7.341
						c21.215,0,35.383,8.832,35.383,8.832l-10.613,4.137c0,0-8.988-4.9-24.855-4.9c-15.869,0-24.859,3.498-24.859,3.498
						L721.603,99.925z"/>
					<path clip-path="url(#SVGID_8_)" fill="none" stroke="#010101" stroke-width="2.146" d="M717.052,97.495
						c0,0,19.508,11.912,42.793,11.912c23.283,0,40.9-11.212,40.9-11.212"/>
					<path clip-path="url(#SVGID_8_)" fill="none" stroke="#010101" stroke-width="2.146" d="M733.097,104.15
						c0,0,12.586-3.502,24.543-3.502s25.172,4.904,25.172,4.904"/>
					<path clip-path="url(#SVGID_8_)" fill="#EFEFEF" d="M567.437,99.925c0,0-15.223-7.341-36.439-7.341
						c-21.215,0-35.383,8.832-35.383,8.832l10.615,4.137c0,0,8.988-4.9,24.854-4.9c15.869,0,24.857,3.498,24.857,3.498
						L567.437,99.925z"/>
					<path clip-path="url(#SVGID_8_)" fill="none" stroke="#010101" stroke-width="2.146" d="M571.988,97.495
						c0,0-19.508,11.912-42.791,11.912c-23.285,0-40.904-11.212-40.904-11.212"/>
					<path clip-path="url(#SVGID_8_)" fill="none" stroke="#010101" stroke-width="2.146" d="M555.941,104.15
						c0,0-12.586-3.502-24.541-3.502c-11.959,0-25.17,4.904-25.17,4.904"/>
					<path clip-path="url(#SVGID_8_)" fill="none" stroke="#010101" stroke-width="2.146" d="M644.521,65.806
						c-6.686,0-15.545-1.239-21.986-5.638c-24.16-16.504-58.301-27.134-96.172-27.134c-73.155,0-132.465,38.9-132.465,86.882
						s59.311,86.88,132.465,86.88c36.574,0,73.266-10.826,93.656-25.436c6.07-4.352,15.023-14.352,24.695-14.352
						s18.234,10,24.305,14.352c20.393,14.609,57.084,25.436,93.656,25.436c73.158,0,132.469-38.898,132.469-86.88
						s-59.311-86.882-132.469-86.882c-37.867,0-72.01,10.63-96.17,27.134C659.863,64.706,651.208,65.806,644.521,65.806z"/>
					
						<line clip-path="url(#SVGID_8_)" fill="none" stroke="#000000" stroke-width="4.2" x1="98.013" y1="216.116" x2="63.123" y2="139.626"/>
					<polygon clip-path="url(#SVGID_8_)" points="56.97,126.135 73.408,141.603 63.584,140.636 57.876,148.687 					"/>
					<path clip-path="url(#SVGID_8_)" d="M104.724,216.116c0-3.707-3.004-6.711-6.71-6.711s-6.71,3.004-6.71,6.711
						s3.004,6.709,6.71,6.709S104.724,219.823,104.724,216.116"/>
					<path clip-path="url(#SVGID_8_)" fill="none" stroke="#000000" stroke-width="1.2" d="M98.013,169.407
						c-6.916,0-13.483,1.504-19.39,4.203"/>
					
						<line clip-path="url(#SVGID_8_)" fill="none" stroke="#000000" stroke-width="1.2" stroke-dasharray="6,6" x1="98.013" y1="216.116" x2="98.013" y2="103.1"/>
					
						<line clip-path="url(#SVGID_8_)" fill="none" stroke="#000000" stroke-width="3.006" x1="448.539" y1="155.8" x2="460.658" y2="96.869"/>
					<polygon clip-path="url(#SVGID_8_)" points="462.792,86.476 465.765,102.352 460.498,97.646 453.799,99.892 					"/>
					<path clip-path="url(#SVGID_8_)" d="M452.418,158.632c1.562-2.141,1.094-5.146-1.046-6.709
						c-2.144-1.564-5.146-1.096-6.71,1.043c-1.566,2.145-1.098,5.148,1.044,6.713C447.849,161.245,450.854,160.774,452.418,158.632"
						/>
					
						<line clip-path="url(#SVGID_8_)" fill="none" stroke="#000000" stroke-width="3.006" x1="700.386" y1="121.893" x2="736.544" y2="169.978"/>
					<polygon clip-path="url(#SVGID_8_)" points="742.921,178.458 729.052,170.179 736.068,169.345 738.816,162.837 					"/>
					<path clip-path="url(#SVGID_8_)" d="M695.699,122.926c0.57,2.591,3.133,4.227,5.721,3.656c2.592-0.572,4.23-3.132,3.658-5.722
						s-3.133-4.23-5.723-3.658C696.765,117.772,695.128,120.336,695.699,122.926"/>
					
						<line clip-path="url(#SVGID_8_)" fill="none" stroke="#000000" stroke-width="4.2" x1="300.322" y1="131.226" x2="265.433" y2="54.734"/>
					<polygon clip-path="url(#SVGID_8_)" points="259.278,41.244 275.717,56.713 265.893,55.744 260.185,63.797 					"/>
					<path clip-path="url(#SVGID_8_)" d="M307.033,131.226c0-3.706-3.004-6.71-6.71-6.71c-3.708,0-6.712,3.004-6.712,6.71
						c0,3.709,3.004,6.713,6.712,6.713C304.029,137.938,307.033,134.935,307.033,131.226"/>
					<path clip-path="url(#SVGID_8_)" fill="none" stroke="#000000" stroke-width="1.2" d="M300.322,84.517
						c-6.918,0-13.483,1.504-19.39,4.203"/>
					
					<line clip-path="url(#SVGID_8_)" fill="none" stroke="#000000" stroke-width="1.2" stroke-dasharray="6,6" x1="300.322" y1="131.226" x2="300.322" y2="18.21"/>
					<g opacity="0.2" clip-path="url(#SVGID_8_)">
						<g>
							<defs>
								<rect id="SVGID_9_" x="393.898" y="33.034" width="501.244" height="173.762"/>
							</defs>
							<clipPath id="SVGID_10_">
								<use xlink:href="#SVGID_9_"  overflow="visible"/>
							</clipPath>
							<path clip-path="url(#SVGID_10_)" fill="#2B3783" d="M666.505,60.168c24.16-16.504,58.301-27.134,96.17-27.134
								c73.158,0,132.467,38.9,132.467,86.882s-59.309,86.88-132.467,86.88c-36.572,0-73.262-10.828-93.656-25.436
								c-6.07-4.352-14.635-14.352-24.305-14.352c-9.672,0-18.625,10-24.695,14.352c-20.391,14.607-57.082,25.436-93.656,25.436
								c-73.156,0-132.463-38.898-132.463-86.88s59.308-86.882,132.463-86.882c37.871,0,72.012,10.63,96.172,27.134
								c6.439,4.398,15.301,5.638,21.986,5.638C651.208,65.806,659.863,64.706,666.505,60.168 M531.083,109.406
								c11.764,0,24.857-4.734,24.857-4.734s-11.219-4.02-24.857-4.02s-24.855,4.899-24.855,4.899S519.326,109.406,531.083,109.406
								 M782.371,105.552c0,0-11.215-4.899-24.855-4.899c-13.637,0-24.855,4.02-24.855,4.02s13.094,4.734,24.855,4.734
								S782.371,105.552,782.371,105.552"/>
						</g>
					</g>
					
						<rect x="25.874" y="5.626" clip-path="url(#SVGID_8_)" fill="none" stroke="#000000" stroke-width="2.988" width="330.5" height="229.631"/>
					<path clip-path="url(#SVGID_8_)" fill="none" stroke="#000000" stroke-width="1.2" d="M532.273,109.645
						c-46.871,5.69-25.541,70.827,42.139,64.214c67.682-6.613,83.062-81.806,125.111-53.432"/>
					<path clip-path="url(#SVGID_8_)" fill="none" stroke="#000000" stroke-width="1.2" d="M448.723,155.226
						c-2.231,26.369,16.955,45,56.748,50.023"/>
				</g>
			</g>
		</g>
		<g clip-path="url(#SVGID_2_)">
			<path d="M48.774,134.966c-0.425,0.691-0.88,1.338-1.364,1.941c-0.485,0.605-0.97,1.133-1.455,1.584
				c-0.485,0.453-0.946,0.809-1.385,1.066c-0.438,0.26-0.816,0.389-1.136,0.389c-0.199,0-0.365-0.076-0.498-0.229
				s-0.199-0.342-0.199-0.568c0-0.158,0.007-0.332,0.02-0.518c0.014-0.186,0.033-0.332,0.061-0.439l1.255-5.916
				c0.026-0.133,0.04-0.254,0.04-0.359s-0.03-0.199-0.09-0.279c-0.06-0.078-0.143-0.119-0.249-0.119
				c-0.093,0-0.203,0.029-0.329,0.09s-0.335,0.182-0.627,0.369l-0.638,0.418l-0.14-0.398l0.558-0.398
				c0.744-0.531,1.318-0.91,1.724-1.137c0.405-0.226,0.714-0.338,0.927-0.338c0.292,0,0.438,0.206,0.438,0.617
				c0,0.133-0.01,0.27-0.03,0.408c-0.02,0.141-0.043,0.289-0.069,0.449l-1.136,5.398c-0.067,0.266-0.106,0.469-0.12,0.609
				c-0.013,0.139-0.02,0.281-0.02,0.428c0,0.346,0.086,0.518,0.259,0.518c0.199,0,0.445-0.086,0.737-0.26
				c0.292-0.172,0.601-0.408,0.927-0.707c0.325-0.299,0.654-0.646,0.986-1.045s0.644-0.83,0.937-1.295
				c0.292-0.465,0.555-1.02,0.787-1.664s0.421-1.346,0.567-2.104l0.199-1.016l1.355-0.338l0.139,0.179
				c-0.146,0.571-0.295,1.163-0.448,1.774c-0.152,0.609-0.299,1.221-0.438,1.832c-0.14,0.611-0.276,1.213-0.409,1.803
				c-0.133,0.592-0.259,1.16-0.378,1.705l-0.021,0.119c-0.04,0.158-0.066,0.291-0.079,0.398c-0.014,0.105-0.021,0.199-0.021,0.279
				c0,0.225,0.086,0.338,0.259,0.338c0.12,0,0.289-0.049,0.509-0.148c0.219-0.1,0.454-0.23,0.707-0.389l0.519-0.34l0.199,0.359
				c-0.479,0.357-0.891,0.658-1.235,0.896c-0.346,0.238-0.642,0.432-0.887,0.578c-0.246,0.146-0.452,0.248-0.618,0.309
				s-0.315,0.09-0.448,0.09c-0.398,0-0.598-0.266-0.598-0.797c0-0.16,0.02-0.355,0.06-0.588s0.093-0.475,0.159-0.729L48.774,134.966
				z"/>
		</g>
		<g clip-path="url(#SVGID_2_)">
			<path d="M452.603,82.539c-0.425,0.69-0.88,1.338-1.364,1.942c-0.485,0.604-0.97,1.133-1.455,1.584
				c-0.485,0.452-0.946,0.807-1.385,1.066c-0.438,0.259-0.816,0.388-1.136,0.388c-0.199,0-0.365-0.076-0.498-0.229
				s-0.199-0.342-0.199-0.568c0-0.159,0.007-0.332,0.02-0.518c0.014-0.187,0.033-0.332,0.061-0.438l1.255-5.918
				c0.026-0.133,0.04-0.252,0.04-0.358s-0.03-0.199-0.09-0.279c-0.06-0.079-0.143-0.119-0.249-0.119
				c-0.093,0-0.203,0.029-0.329,0.09c-0.126,0.06-0.335,0.183-0.627,0.368l-0.638,0.419l-0.14-0.399l0.558-0.398
				c0.744-0.53,1.318-0.909,1.724-1.136c0.405-0.226,0.714-0.338,0.927-0.338c0.292,0,0.438,0.206,0.438,0.617
				c0,0.133-0.01,0.27-0.03,0.408c-0.02,0.14-0.043,0.289-0.069,0.448l-1.136,5.4c-0.067,0.266-0.106,0.468-0.12,0.607
				c-0.013,0.14-0.02,0.282-0.02,0.429c0,0.346,0.086,0.518,0.259,0.518c0.199,0,0.445-0.086,0.737-0.259s0.601-0.408,0.927-0.707
				c0.325-0.299,0.654-0.647,0.986-1.047c0.332-0.398,0.644-0.829,0.937-1.295c0.292-0.465,0.555-1.02,0.787-1.663
				c0.232-0.645,0.421-1.346,0.567-2.103l0.199-1.017l1.355-0.338l0.139,0.179c-0.146,0.571-0.295,1.163-0.448,1.773
				c-0.152,0.611-0.299,1.223-0.438,1.833c-0.14,0.611-0.276,1.213-0.409,1.804s-0.259,1.159-0.378,1.703l-0.021,0.12
				c-0.04,0.159-0.066,0.292-0.079,0.398c-0.014,0.106-0.021,0.199-0.021,0.278c0,0.227,0.086,0.339,0.259,0.339
				c0.12,0,0.289-0.05,0.509-0.149c0.219-0.1,0.454-0.229,0.707-0.389l0.519-0.339l0.199,0.359
				c-0.479,0.358-0.891,0.657-1.235,0.896c-0.346,0.239-0.642,0.432-0.887,0.578c-0.246,0.146-0.452,0.249-0.618,0.309
				s-0.315,0.09-0.448,0.09c-0.398,0-0.598-0.266-0.598-0.798c0-0.159,0.02-0.354,0.06-0.587s0.093-0.476,0.159-0.728
				L452.603,82.539z"/>
		</g>
		<g clip-path="url(#SVGID_2_)">
			<path d="M84.918,139.524c1.594,0,2.391,1.475,2.391,4.422c0,1.449-0.252,2.92-0.757,4.414s-1.116,2.699-1.833,3.617
				c-0.465,0.598-0.986,1.068-1.564,1.414s-1.133,0.518-1.664,0.518c-0.823,0-1.414-0.379-1.772-1.135
				c-0.359-0.758-0.538-1.947-0.538-3.566c0-1.768,0.282-3.381,0.847-4.842s1.312-2.637,2.241-3.527
				C83.157,139.962,84.041,139.524,84.918,139.524z M83.204,147.114c-1.209,0-1.999,0.08-2.371,0.24
				c-0.093,0.598-0.14,1.229-0.14,1.893c0,1.314,0.097,2.295,0.289,2.939s0.568,0.967,1.126,0.967c0.598,0,1.109-0.326,1.534-0.977
				c0.783-1.275,1.388-2.891,1.813-4.842C85.15,147.188,84.399,147.114,83.204,147.114z M84.42,140.28
				c-0.531,0-0.937,0.154-1.216,0.459c-0.372,0.426-0.761,1.135-1.165,2.131c-0.405,0.998-0.734,2.066-0.986,3.209
				c0.345,0.133,1.108,0.199,2.291,0.199c1.169,0,1.946-0.066,2.331-0.199c0.08-0.559,0.12-1.123,0.12-1.693
				c0-0.705-0.014-1.271-0.04-1.703c-0.027-0.432-0.083-0.852-0.17-1.256c-0.086-0.406-0.226-0.697-0.418-0.877
				S84.726,140.28,84.42,140.28z"/>
		</g>
		<g clip-path="url(#SVGID_2_)">
			<path d="M290.82,61.18c1.594,0,2.391,1.475,2.391,4.424c0,1.447-0.252,2.919-0.757,4.413s-1.116,2.7-1.833,3.616
				c-0.465,0.598-0.986,1.069-1.564,1.415s-1.133,0.518-1.664,0.518c-0.823,0-1.414-0.378-1.772-1.136
				c-0.359-0.757-0.538-1.945-0.538-3.566c0-1.767,0.282-3.38,0.847-4.842c0.564-1.461,1.312-2.637,2.241-3.526
				C289.06,61.618,289.943,61.18,290.82,61.18z M289.106,68.771c-1.209,0-1.999,0.079-2.371,0.239
				c-0.093,0.598-0.14,1.229-0.14,1.893c0,1.315,0.097,2.295,0.289,2.939c0.192,0.644,0.568,0.966,1.126,0.966
				c0.598,0,1.109-0.325,1.534-0.977c0.783-1.274,1.388-2.889,1.813-4.842C291.053,68.845,290.302,68.771,289.106,68.771z
				 M290.322,61.938c-0.531,0-0.937,0.152-1.216,0.458c-0.372,0.425-0.761,1.136-1.165,2.132c-0.405,0.996-0.734,2.065-0.986,3.208
				c0.345,0.133,1.108,0.199,2.291,0.199c1.169,0,1.946-0.066,2.331-0.199c0.08-0.558,0.12-1.122,0.12-1.693
				c0-0.704-0.014-1.272-0.04-1.704c-0.027-0.432-0.083-0.85-0.17-1.255c-0.086-0.405-0.226-0.697-0.418-0.877
				S290.628,61.938,290.322,61.938z"/>
		</g>
		<g clip-path="url(#SVGID_2_)">
			<path d="M245.426,50.677c-0.425,0.69-0.88,1.338-1.364,1.942c-0.485,0.604-0.97,1.133-1.455,1.584
				c-0.485,0.452-0.946,0.807-1.385,1.066c-0.438,0.259-0.816,0.388-1.136,0.388c-0.199,0-0.365-0.076-0.498-0.229
				s-0.199-0.342-0.199-0.568c0-0.159,0.007-0.332,0.02-0.518c0.014-0.187,0.033-0.332,0.061-0.438l1.255-5.918
				c0.026-0.133,0.04-0.252,0.04-0.358s-0.03-0.199-0.09-0.279c-0.06-0.079-0.143-0.119-0.249-0.119
				c-0.093,0-0.203,0.029-0.329,0.09c-0.126,0.06-0.335,0.183-0.627,0.368l-0.638,0.419l-0.14-0.399l0.558-0.398
				c0.744-0.53,1.318-0.909,1.724-1.136c0.405-0.226,0.714-0.338,0.927-0.338c0.292,0,0.438,0.206,0.438,0.617
				c0,0.133-0.01,0.27-0.03,0.408c-0.02,0.14-0.043,0.289-0.069,0.448l-1.136,5.4c-0.067,0.266-0.106,0.468-0.12,0.607
				c-0.013,0.14-0.02,0.282-0.02,0.429c0,0.346,0.086,0.518,0.259,0.518c0.199,0,0.445-0.086,0.737-0.259s0.601-0.408,0.927-0.707
				c0.325-0.299,0.654-0.647,0.986-1.047c0.332-0.398,0.644-0.829,0.937-1.295c0.292-0.465,0.555-1.02,0.787-1.663
				c0.232-0.645,0.421-1.346,0.567-2.103l0.199-1.017l1.355-0.338l0.139,0.179c-0.146,0.571-0.295,1.163-0.448,1.773
				c-0.152,0.611-0.299,1.223-0.438,1.833c-0.14,0.611-0.276,1.213-0.409,1.804s-0.259,1.159-0.378,1.703l-0.021,0.12
				c-0.04,0.159-0.066,0.292-0.079,0.398c-0.014,0.106-0.021,0.199-0.021,0.278c0,0.227,0.086,0.339,0.259,0.339
				c0.12,0,0.289-0.05,0.509-0.149c0.219-0.1,0.454-0.229,0.707-0.389l0.519-0.339l0.199,0.359
				c-0.479,0.358-0.891,0.657-1.235,0.896c-0.346,0.239-0.642,0.432-0.887,0.578c-0.246,0.146-0.452,0.249-0.618,0.309
				s-0.315,0.09-0.448,0.09c-0.398,0-0.598-0.266-0.598-0.798c0-0.159,0.02-0.354,0.06-0.587s0.093-0.476,0.159-0.728
				L245.426,50.677z"/>
		</g>
		<g clip-path="url(#SVGID_2_)">
			<path d="M252.476,37.398c-0.363,1.325-1.042,3.014-1.483,3.739l-0.884,0.11c0.348-0.931,0.758-2.571,0.932-3.708L252.476,37.398z
				"/>
		</g>
		<g clip-path="url(#SVGID_2_)">
			<path d="M752.867,167.015c-0.426,0.691-0.881,1.338-1.365,1.941c-0.486,0.605-0.971,1.133-1.455,1.584
				c-0.484,0.453-0.945,0.809-1.385,1.066c-0.438,0.26-0.816,0.389-1.135,0.389c-0.199,0-0.367-0.076-0.498-0.229
				c-0.135-0.152-0.199-0.342-0.199-0.568c0-0.158,0.006-0.332,0.02-0.518c0.012-0.186,0.033-0.332,0.059-0.439l1.256-5.916
				c0.027-0.133,0.039-0.254,0.039-0.359s-0.029-0.199-0.088-0.279c-0.061-0.08-0.145-0.119-0.25-0.119
				c-0.094,0-0.203,0.029-0.328,0.09c-0.127,0.059-0.336,0.182-0.629,0.369l-0.637,0.418l-0.141-0.398l0.559-0.398
				c0.744-0.531,1.318-0.91,1.725-1.137c0.404-0.225,0.713-0.338,0.926-0.338c0.291,0,0.438,0.205,0.438,0.617
				c0,0.133-0.01,0.27-0.029,0.408c-0.02,0.141-0.043,0.289-0.07,0.449l-1.135,5.398c-0.066,0.266-0.107,0.469-0.119,0.609
				c-0.014,0.139-0.021,0.281-0.021,0.428c0,0.346,0.088,0.518,0.26,0.518c0.199,0,0.445-0.086,0.738-0.26
				c0.291-0.172,0.6-0.408,0.926-0.707c0.324-0.299,0.654-0.646,0.986-1.045s0.645-0.83,0.936-1.295
				c0.293-0.465,0.555-1.02,0.787-1.664s0.422-1.346,0.568-2.104l0.199-1.016l1.355-0.338l0.139,0.18
				c-0.146,0.57-0.295,1.162-0.447,1.773c-0.154,0.609-0.299,1.221-0.439,1.832c-0.139,0.611-0.275,1.213-0.408,1.803
				c-0.133,0.592-0.258,1.16-0.379,1.705l-0.02,0.119c-0.039,0.158-0.066,0.291-0.08,0.398c-0.014,0.105-0.02,0.199-0.02,0.279
				c0,0.225,0.086,0.338,0.26,0.338c0.119,0,0.289-0.049,0.508-0.148s0.455-0.23,0.707-0.389l0.518-0.34l0.199,0.359
				c-0.479,0.357-0.889,0.658-1.234,0.896s-0.641,0.432-0.887,0.578s-0.453,0.248-0.617,0.309c-0.168,0.061-0.316,0.09-0.449,0.09
				c-0.398,0-0.598-0.266-0.598-0.797c0-0.16,0.02-0.355,0.061-0.588c0.039-0.232,0.092-0.475,0.158-0.729L752.867,167.015z"/>
		</g>
		<g clip-path="url(#SVGID_2_)">
			<path d="M759.912,153.733c-0.361,1.326-1.041,3.014-1.482,3.74l-0.883,0.111c0.346-0.932,0.756-2.572,0.93-3.709L759.912,153.733
				z"/>
		</g>
	</g>
</g>
</svg>
